<svg width="32" height="40" viewBox="0 0 32 40" fill="none" xmlns="http://www.w3.org/2000/svg">
<path d="M15.9999 0C11.7565 0 7.68685 1.6857 4.68628 4.68628C1.6857 7.68685 0 11.7565 0 15.9999C0 26.7999 14.1 38.9999 14.7 39.5199C15.0622 39.8297 15.5232 40 15.9999 40C16.4767 40 16.9377 39.8297 17.2999 39.5199C17.9999 38.9999 31.9999 26.7999 31.9999 15.9999C31.9999 11.7565 30.3142 7.68685 27.3136 4.68628C24.313 1.6857 20.2434 0 15.9999 0ZM15.9999 35.2999C11.74 31.2999 3.99999 22.6799 3.99999 15.9999C3.99999 12.8174 5.26427 9.76512 7.51469 7.51469C9.76512 5.26427 12.8174 3.99999 15.9999 3.99999C19.1825 3.99999 22.2348 5.26427 24.4852 7.51469C26.7356 9.76512 27.9999 12.8174 27.9999 15.9999C27.9999 22.6799 20.2599 31.3199 15.9999 35.2999ZM15.9999 7.99997C14.4177 7.99997 12.871 8.46916 11.5554 9.34821C10.2398 10.2273 9.21443 11.4767 8.60894 12.9385C8.00344 14.4003 7.84501 16.0088 8.15369 17.5607C8.46237 19.1125 9.2243 20.538 10.3431 21.6568C11.4619 22.7756 12.8874 23.5375 14.4392 23.8462C15.9911 24.1549 17.5996 23.9965 19.0614 23.391C20.5232 22.7855 21.7726 21.7601 22.6517 20.4445C23.5307 19.1289 23.9999 17.5822 23.9999 15.9999C23.9999 13.8782 23.1571 11.8434 21.6568 10.3431C20.1565 8.84283 18.1217 7.99997 15.9999 7.99997ZM15.9999 19.9999C15.2088 19.9999 14.4355 19.7653 13.7777 19.3258C13.1199 18.8863 12.6072 18.2616 12.3044 17.5307C12.0017 16.7998 11.9225 15.9955 12.0768 15.2196C12.2312 14.4437 12.6121 13.7309 13.1715 13.1715C13.7309 12.6121 14.4437 12.2312 15.2196 12.0768C15.9955 11.9225 16.7998 12.0017 17.5307 12.3044C18.2616 12.6072 18.8863 13.1199 19.3258 13.7777C19.7653 14.4355 19.9999 15.2088 19.9999 15.9999C19.9999 17.0608 19.5785 18.0782 18.8284 18.8284C18.0782 19.5785 17.0608 19.9999 15.9999 19.9999Z" fill="#EF7608"/>
</svg>
